:SAMPLES-PER-SECOND 30
:FRAME-RANGE 1-2009
:FULLY-SPECIFIED
:DEGREES
1696
root  1.1145 39.7049 -12.8462 179.885 33.2663 175.506
RightUpLeg  7.9196 -7.53042 -4.80343
RightLeg  4.58309 -2.59347 0.846831
RightFoot  -16.2185 0.244113 8.30624
RightToes  4.71047e-010 1.2921e-014 -6.02303e-014
Spine  6.70824 2.12795 7.41724
Spine1  -0.117191 3.3822 -4.82544
HEad  5.87226 23.4831 -6.77288
LeftShoulder1  1.1492 0.44187 -31.4692
LeftArm  5.49911 8.02625 -27.9909
LeftForeArm  12.2692 -35.9689 -7.41293
LeftHand  0.0878732 -1.55864 -1.33292
RightShoulder  12.2356 16.5795 53.2458
RightArm  26.6832 6.65898 17.3113
RightForeArm  12.0313 6.24245 16.7053
RightHand  0.252638 0.538947 4.9097
LeftUpLeg  -23.8156 19.5464 -10.5027
LeftLeg  15.0734 3.05906 0.331525
LeftFoot  -4.15313 0.610984 -9.31717
LeftToes  2.15783e-011 -7.56106e-012 -8.20802e-012
1697
root  1.80996 39.5822 -13.3512 179.845 34.6037 175.818
RightUpLeg  9.98046 -6.94931 -4.08836
RightLeg  3.16558 -2.44193 0.650334
RightFoot  -16.6648 0.266779 8.16104
RightToes  4.71047e-010 1.2921e-014 -6.02303e-014
Spine  6.76884 2.20488 6.99785
Spine1  -0.0246502 3.40116 -4.56321
HEad  5.49286 24.0484 -6.42086
LeftShoulder1  1.15087 0.45056 -31.6309
LeftArm  10.3763 9.36264 -29.6363
LeftForeArm  8.91785 -32.3272 -6.62966
LeftHand  0.118298 -1.82726 -1.75038
RightShoulder  11.8872 15.9182 53.4885
RightArm  20.1935 6.16978 15.7523
RightForeArm  16.6275 0.429775 17.9756
RightHand  0.219537 0.368526 4.40636
LeftUpLeg  -23.4165 15.385 -10.132
LeftLeg  12.1128 8.58688 -0.978007
LeftFoot  -4.18555 0.589751 -9.01837
LeftToes  2.15783e-011 -7.56106e-012 -8.20802e-012
1698
root  2.56712 39.4075 -13.9488 -179.981 35.7628 176.341
RightUpLeg  12.1308 -6.70965 -3.51857
RightLeg  1.95076 -1.69107 0.82299
RightFoot  -17.2681 0.289973 7.85586
RightToes  4.71047e-010 1.2921e-014 -6.02303e-014
Spine  6.51978 2.29175 6.59114
Spine1  0.140299 3.44504 -4.4027
HEad  5.19446 24.5562 -6.00507
LeftShoulder1  1.1538 0.458907 -31.8308
LeftArm  17.4724 10.2917 -31.1163
LeftForeArm  2.88986 -27.6968 -5.82178
LeftHand  0.188485 -1.98863 -2.80573
RightShoulder  11.3034 14.8511 53.8143
RightArm  20.4358 5.31992 14.1845
RightForeArm  15.8004 -2.23027 18.5536
RightHand  0.200896 0.0813426 4.2774
LeftUpLeg  -22.9394 9.77468 -8.78996
LeftLeg  9.24356 16.0055 -2.32925
LeftFoot  -4.2151 0.581755 -8.9251
LeftToes  2.15783e-011 -7.56106e-012 -8.20802e-012
1699
root  3.36322 39.1615 -14.6077 -179.575 36.9998 177.15
RightUpLeg  13.6904 -6.6785 -2.94078
RightLeg  2.16549 -0.729912 1.13711
RightFoot  -18.3008 0.311075 7.15046
RightToes  4.71047e-010 1.2921e-014 -6.02303e-014
Spine  6.48073 2.39809 6.38181
Spine1  -0.117381 3.54661 -4.47048
HEad  4.66145 25.473 -5.55783
LeftShoulder1  1.14554 0.493685 -31.9939
LeftArm  26.8316 11.2144 -32.298
LeftForeArm  -5.38044 -23.1103 -5.37988
LeftHand  0.251843 -1.95114 -3.82827
RightShoulder  10.5428 13.6669 53.6695
RightArm  19.1586 3.91538 12.9809
RightForeArm  17.9217 -2.2358 18.4522
RightHand  0.191708 -0.155864 4.29851
LeftUpLeg  -23.0003 7.2229 -8.19547
LeftLeg  7.67015 20.836 -3.01529
LeftFoot  -4.53493 0.525944 -8.37773
LeftToes  2.15783e-011 -7.56106e-012 -8.20802e-012
1700
root  4.20494 38.8971 -15.3649 -179.194 38.3479 178.005
RightUpLeg  15.1322 -6.36445 -2.20802
RightLeg  3.07992 0.222868 1.08482
RightFoot  -19.3952 0.337007 6.65018
RightToes  4.71047e-010 1.2921e-014 -6.02303e-014
Spine  6.5268 2.49811 6.10637
Spine1  -0.517369 3.68593 -4.744
HEad  3.97082 26.8215 -5.05377
LeftShoulder1  1.1435 0.518611 -32.2428
LeftArm  26.5344 12.3152 -32.4717
LeftForeArm  -3.78692 -17.8937 -9.69648
LeftHand  0.346724 -1.82082 -5.44061
RightShoulder  9.57049 12.2031 53.284
RightArm  21.4389 2.15527 12.0367
RightForeArm  17.2559 -1.5618 18.5945
RightHand  0.184889 -0.347804 4.33135
LeftUpLeg  -22.5791 5.24297 -7.66556
LeftLeg  6.73845 24.7513 -3.06007
LeftFoot  -4.55559 0.512935 -8.18258
LeftToes  2.15783e-011 -7.56106e-012 -8.20802e-012
1701
root  5.11533 38.6061 -16.2002 -178.816 39.7828 178.957
RightUpLeg  16.4435 -6.28626 -1.75222
RightLeg  4.85689 1.32363 1.23482
RightFoot  -20.4506 0.403889 6.80553
RightToes  4.71047e-010 1.2921e-014 -6.02303e-014
Spine  6.604 2.59518 5.69977
Spine1  -0.952646 3.84296 -5.16957
HEad  2.99744 28.1655 -4.27821
LeftShoulder1  1.13247 0.557258 -32.3701
LeftArm  21.4811 14.0931 -32.0467
LeftForeArm  0.948967 -12.3755 -14.1416
LeftHand  0.393691 -1.24223 -6.80034
RightShoulder  8.37731 10.4947 52.3731
RightArm  23.1386 -0.00725019 11.7026
RightForeArm  16.5778 -1.31929 18.6583
RightHand  0.175009 -0.703446 4.46832
LeftUpLeg  -22.4391 6.07377 -8.08906
LeftLeg  7.89684 23.3782 -2.2914
LeftFoot  -2.52956 0.224113 -2.71155
LeftToes  2.15783e-011 -7.56106e-012 -8.20802e-012
1702
root  6.05697 38.391 -17.1073 -179.088 40.8187 179.129
RightUpLeg  17.8417 -6.76323 -2.43099
RightLeg  7.20787 3.92745 1.59373
RightFoot  -20.9252 0.538332 8.10524
RightToes  4.71047e-010 1.2921e-014 -6.02303e-014
Spine  6.86394 2.45371 4.1098
Spine1  -1.38062 3.67668 -5.24891
HEad  1.8669 29.5868 -3.64403
LeftShoulder1  1.11822 0.634666 -32.9071
LeftArm  17.863 16.7222 -30.8728
LeftForeArm  2.94053 -8.3152 -16.4491
LeftHand  0.370301 -0.352373 -7.49385
RightShoulder  7.06621 8.63725 50.9767
RightArm  26.7886 -2.6667 11.7977
RightForeArm  14.2405 -0.767178 18.8255
RightHand  0.237614 0.155413 4.9827
LeftUpLeg  -22.9856 7.55456 -9.70118
LeftLeg  11.61 22.1221 0.747166
LeftFoot  0.930457 -1.03509 9.55174
LeftToes  2.15783e-011 -7.56106e-012 -8.20802e-012
1703
root  7.02645 38.1351 -18.0717 -179.876 40.4124 178.5
RightUpLeg  17.371 -9.82196 -4.6901
RightLeg  14.3033 8.71845 2.87531
RightFoot  -21.4133 0.736841 9.99152
RightToes  4.71047e-010 1.2921e-014 -6.02303e-014
Spine  7.40778 2.12275 1.49477
Spine1  -2.56545 2.91146 -4.26872
HEad  0.763736 30.9291 -3.35604
LeftShoulder1  1.15541 0.627132 -34.0867
LeftArm  16.8016 18.3197 -28.986
LeftForeArm  2.17614 -5.00929 -17.9852
LeftHand  0.35541 0.434201 -8.455
RightShoulder  5.31522 5.87376 49.6753
RightArm  26.4605 -5.30839 11.6992
RightForeArm  14.9114 1.0411 18.3202
RightHand  0.202755 -0.0830873 4.47271
LeftUpLeg  -25.0617 12.9588 -13.4835
LeftLeg  19.4155 14.735 6.00875
LeftFoot  -1.81105 -0.758178 9.20515
LeftToes  2.15783e-011 -7.56106e-012 -8.20802e-012
1704
root  7.8565 38.1076 -18.9989 179.108 39.7234 177.655
RightUpLeg  15.1076 -11.3711 -6.92843
RightLeg  23.9868 11.9977 5.5748
RightFoot  -18.2178 0.720369 13.9928
RightToes  4.71047e-010 1.2921e-014 -6.02303e-014
Spine  7.62932 2.0925 -0.225083
Spine1  -2.14303 2.80192 -4.78626
HEad  -0.326113 31.7326 -3.45389
LeftShoulder1  1.21045 0.523558 -34.5325
LeftArm  16.9458 18.5372 -28.3095
LeftForeArm  0.644287 -2.30813 -18.9748
LeftHand  0.294694 1.00125 -8.03469
RightShoulder  3.5649 2.98387 48.1928
RightArm  30.1892 -8.70774 11.8369
RightForeArm  10.5487 5.31138 17.3468
RightHand  0.169821 -0.381618 4.014
LeftUpLeg  -23.7241 11.5078 -13.4805
LeftLeg  22.4302 15.5265 7.24854
LeftFoot  -4.04441 -0.554173 9.05392
LeftToes  2.15783e-011 -7.56106e-012 -8.20802e-012
1705
root  8.57871 38.1416 -19.9052 178.566 40.3367 176.752
RightUpLeg  9.10432 -8.58575 -7.98902
RightLeg  36.6641 11.4773 8.80214
RightFoot  -10.4708 -0.223921 19.8479
RightToes  4.71047e-010 1.2921e-014 -6.02303e-014
Spine  7.58772 2.42559 -1.46629
Spine1  -1.95473 3.05143 -5.92284
HEad  -0.939198 34.1632 -4.07789
LeftShoulder1  1.14487 0.675718 -34.3985
LeftArm  13.5258 20.0296 -28.3039
LeftForeArm  2.7049 -1.3935 -18.8704
LeftHand  0.289121 1.20594 -8.3121
RightShoulder  2.70252 1.52889 47.1263
RightArm  34.1013 -12.1931 11.5889
RightForeArm  6.6655 8.4171 16.2487
RightHand  0.216937 -0.0376827 4.73779
LeftUpLeg  -22.4663 11.5335 -13.8129
LeftLeg  23.9424 16.1792 8.04424
LeftFoot  -6.40088 -0.337246 8.69506
LeftToes  2.15783e-011 -7.56106e-012 -8.20802e-012
1706
root  9.28072 38.1416 -20.723 177.989 40.4798 175.564
RightUpLeg  1.23836 -4.91347 -8.47709
RightLeg  49.5615 8.55686 10.2931
RightFoot  0.707895 -2.27554 21.3762
RightToes  4.71047e-010 1.2921e-014 -6.02303e-014
Spine  7.98854 2.36939 -4.14084
Spine1  -2.41976 2.50736 -5.49664
HEad  -1.76995 38.3663 -5.15961
LeftShoulder1  1.00545 1.0089 -34.2138
LeftArm  11.9255 22.0206 -28.4205
LeftForeArm  3.57115 -3.12435 -18.2399
LeftHand  0.311172 1.09667 -8.68079
RightShoulder  2.20162 0.68508 46.1465
RightArm  36.0986 -13.715 11.6349
RightForeArm  6.74379 8.74086 16.1509
RightHand  0.263879 0.302544 5.37292
LeftUpLeg  -21.3278 12.2696 -14.4034
LeftLeg  25.0522 15.5157 7.99391
LeftFoot  -8.56391 -0.132628 7.58883
LeftToes  2.15783e-011 -7.56106e-012 -8.20802e-012
1707
root  9.96663 38.1444 -21.5438 177.111 39.7445 174.877
RightUpLeg  -5.06126 -2.66509 -8.97043
RightLeg  59.0094 5.47627 9.32395
RightFoot  7.288 -3.35259 20.5474
RightToes  4.71047e-010 1.2921e-014 -6.02303e-014
Spine  8.48422 2.16418 -5.96563
Spine1  -1.95173 1.91579 -5.32646
HEad  -3.57173 42.1893 -6.85725
LeftShoulder1  1.04512 0.920103 -34.3633
LeftArm  12.6804 21.9343 -28.4155
LeftForeArm  2.57535 -4.77888 -17.7698
LeftHand  0.372114 0.798841 -9.61488
RightShoulder  1.72655 -0.180918 45.6791
RightArm  33.7065 -14.2138 11.8368
RightForeArm  10.7842 7.42946 16.4646
RightHand  0.320045 0.67774 6.07347
LeftUpLeg  -19.1388 11.5887 -14.1739
LeftLeg  25.9484 15.6291 7.68413
LeftFoot  -10.7229 0.0304221 6.32019
LeftToes  2.15783e-011 -7.56106e-012 -8.20802e-012
